<svg xmlns="http://www.w3.org/2000/svg" width="39.235" height="40.689" viewBox="0 0 39.235 40.689">
  <g id="layer1" transform="translate(-1.207 0.428)">
    <g id="Group_253" data-name="Group 253" transform="translate(-21.975 -11.555)">
      <g id="NAABU" transform="translate(23.675 11.679)">
        <g id="Group_234" data-name="Group 234" transform="translate(7.76 10.563)">
          <g id="Group_232" data-name="Group 232" transform="translate(6.409 20.047)">
            <path id="Path_153" data-name="Path 153" d="M92.95,151.122l8.476-2.753a.534.534,0,0,0-.165-1.042.558.558,0,0,0-.165.026l-8.476,2.753a.534.534,0,0,0,.165,1.042A.557.557,0,0,0,92.95,151.122Z" transform="translate(-92.25 -147.327)" fill="#fff"/>
            <path id="Path_154" data-name="Path 154" d="M93.017,155.217a.557.557,0,0,0,.165-.026l8.476-2.753a.534.534,0,0,0-.165-1.042.557.557,0,0,0-.165.026l-8.476,2.753a.534.534,0,0,0,.165,1.042Z" transform="translate(-92.32 -148.544)" fill="#fff"/>
            <path id="Path_155" data-name="Path 155" d="M102.233,155.836a.534.534,0,0,0-.508-.369.557.557,0,0,0-.165.026l-8.476,2.753a.534.534,0,0,0,.165,1.042.558.558,0,0,0,.165-.026l8.476-2.753a.54.54,0,0,0,.311-.265.529.529,0,0,0,.031-.408Z" transform="translate(-92.391 -149.762)" fill="#fff"/>
          </g>
          <g id="Group_233" data-name="Group 233" transform="translate(0 0)">
            <path id="Path_156" data-name="Path 156" d="M85.853,119.93a11.337,11.337,0,0,0,0,14.8c.184.216.372.423.575.623l.022.022a.822.822,0,0,0,1.159-.008l.031-.031a.83.83,0,0,0-.009-1.176l-.005-.005c-.2-.2-.391-.412-.571-.627a9.649,9.649,0,0,1,0-12.4l6.2,6.2,1.2,1.2.925.925-2.489-4.39a9.686,9.686,0,0,0-1.576-2.07l-3.06-3.06-1.2-1.2" transform="translate(-83.105 -118.727)" fill="#fff"/>
            <path id="Path_157" data-name="Path 157" d="M107.493,134.867a11.337,11.337,0,0,0,0-14.8c-.184-.216-.373-.423-.575-.623l-.022-.022a.822.822,0,0,0-1.159.008l-.031.031a.828.828,0,0,0,.009,1.176l.005.005c.2.2.391.412.571.627a9.666,9.666,0,0,1,0,12.4l-6.2-6.2-1.2-1.2-.925-.925,2.489,4.39a9.684,9.684,0,0,0,1.576,2.07l3.06,3.06,1.2,1.2" transform="translate(-87.551 -118.865)" fill="#fff"/>
          </g>
        </g>
      </g>
      <g id="Group_251" data-name="Group 251">
        <g id="Group_246" data-name="Group 246" transform="translate(53.694 38.309)">
          <rect id="Rectangle_481" data-name="Rectangle 481" width="0.661" height="1.542" transform="matrix(0.562, -0.827, 0.827, 0.562, 3.8, 3.12)" fill="#fff"/>
          <rect id="Rectangle_482" data-name="Rectangle 482" width="0.628" height="4.01" transform="matrix(0.561, -0.828, 0.828, 0.561, 0, 0.52)" fill="#fff"/>
        </g>
        <g id="Group_247" data-name="Group 247" transform="translate(55.627 34.166) rotate(-20.237)">
          <rect id="Rectangle_481-2" data-name="Rectangle 481" width="0.661" height="1.542" transform="matrix(0.562, -0.827, 0.827, 0.562, 3.8, 3.12)" fill="#fff"/>
          <rect id="Rectangle_482-2" data-name="Rectangle 482" width="0.628" height="4.01" transform="matrix(0.561, -0.828, 0.828, 0.561, 0, 0.52)" fill="#fff"/>
        </g>
        <g id="Group_248" data-name="Group 248" transform="matrix(0.985, -0.173, 0.173, 0.985, 54.842, 36.333)">
          <rect id="Rectangle_481-3" data-name="Rectangle 481" width="0.661" height="1.542" transform="matrix(0.562, -0.827, 0.827, 0.562, 3.751, 3.12)" fill="#fff"/>
          <rect id="Rectangle_482-3" data-name="Rectangle 482" width="0.628" height="4.01" transform="matrix(0.561, -0.828, 0.828, 0.561, 0, 0.52)" fill="#fff"/>
        </g>
        <g id="Group_249" data-name="Group 249" transform="matrix(0.863, -0.505, 0.505, 0.863, 56.021, 31.896)">
          <rect id="Rectangle_481-4" data-name="Rectangle 481" width="0.661" height="1.542" transform="matrix(0.562, -0.827, 0.827, 0.562, 3.751, 3.12)" fill="#fff"/>
          <rect id="Rectangle_482-4" data-name="Rectangle 482" width="0.628" height="4.01" transform="matrix(0.561, -0.828, 0.828, 0.561, 0, 0.52)" fill="#fff"/>
        </g>
        <g id="Group_249-2" data-name="Group 249" transform="matrix(0.863, -0.505, 0.505, 0.863, 15.981, 23.726)">
          <rect id="Rectangle_481-5" data-name="Rectangle 481" width="0.661" height="1.542" transform="translate(35.826 27.674) rotate(-65.084)" fill="#fff"/>
          <rect id="Rectangle_482-5" data-name="Rectangle 482" width="0.628" height="4.01" transform="matrix(0.421, -0.907, 0.907, 0.421, 31.706, 25.711)" fill="#fff"/>
          <rect id="Rectangle_481-6" data-name="Rectangle 481" width="0.661" height="1.542" transform="translate(36.991 24.697) rotate(-75.621)" fill="#fff"/>
          <rect id="Rectangle_482-6" data-name="Rectangle 482" width="0.628" height="4.01" transform="translate(32.581 23.519) rotate(-75.664)" fill="#fff"/>
          <rect id="Rectangle_481-7" data-name="Rectangle 481" width="0.661" height="1.542" transform="translate(37.6 21.617) rotate(-84.915)" fill="#fff"/>
          <rect id="Rectangle_482-7" data-name="Rectangle 482" width="0.628" height="4.01" transform="translate(33.058 21.168) rotate(-84.958)" fill="#fff"/>
          <rect id="Rectangle_481-8" data-name="Rectangle 481" width="0.661" height="1.542" transform="translate(37.681 18.428) rotate(-95.283)" fill="#fff"/>
          <rect id="Rectangle_482-8" data-name="Rectangle 482" width="0.628" height="4.01" transform="translate(33.132 18.803) rotate(-95.326)" fill="#fff"/>
          <rect id="Rectangle_481-9" data-name="Rectangle 481" width="0.661" height="1.542" transform="matrix(-0.27, -0.963, 0.963, -0.27, 37.201, 15.31)" fill="#fff"/>
          <rect id="Rectangle_482-9" data-name="Rectangle 482" width="0.628" height="4.01" transform="translate(32.795 16.499) rotate(-105.702)" fill="#fff"/>
          <rect id="Rectangle_481-10" data-name="Rectangle 481" width="0.661" height="1.542" transform="matrix(-0.438, -0.899, 0.899, -0.438, 36.183, 12.3)" fill="#fff"/>
          <rect id="Rectangle_482-10" data-name="Rectangle 482" width="0.628" height="4.01" transform="translate(32.062 14.26) rotate(-116.047)" fill="#fff"/>
          <rect id="Rectangle_481-11" data-name="Rectangle 481" width="0.661" height="1.542" transform="matrix(-0.585, -0.811, 0.811, -0.585, 34.642, 9.536)" fill="#fff"/>
          <rect id="Rectangle_482-11" data-name="Rectangle 482" width="0.628" height="4.01" transform="translate(30.914 12.168) rotate(-125.837)" fill="#fff"/>
          <rect id="Rectangle_481-12" data-name="Rectangle 481" width="0.661" height="1.542" transform="translate(32.693 7.09) rotate(-135.625)" fill="#fff"/>
          <rect id="Rectangle_482-12" data-name="Rectangle 482" width="0.628" height="4.01" transform="translate(29.469 10.321) rotate(-135.668)" fill="#fff"/>
          <g id="Group_247-2" data-name="Group 247" transform="matrix(-0.181, -0.984, 0.984, -0.181, 25.155, 7.584)">
            <rect id="Rectangle_481-13" data-name="Rectangle 481" width="0.661" height="1.542" transform="translate(3.761 3.171) rotate(-54.994)" fill="#fff"/>
            <rect id="Rectangle_482-13" data-name="Rectangle 482" width="0.628" height="4.01" transform="matrix(0.573, -0.82, 0.82, 0.573, 0, 0.515)" fill="#fff"/>
          </g>
          <g id="Group_248-2" data-name="Group 248" transform="translate(27.122 8.7) rotate(-90.128)">
            <rect id="Rectangle_481-14" data-name="Rectangle 481" width="0.661" height="1.542" transform="matrix(0.562, -0.827, 0.827, 0.562, 3.751, 3.12)" fill="#fff"/>
            <rect id="Rectangle_482-14" data-name="Rectangle 482" width="0.628" height="4.01" transform="matrix(0.561, -0.828, 0.828, 0.561, 0, 0.52)" fill="#fff"/>
          </g>
          <g id="Group_249-3" data-name="Group 249" transform="translate(23.055 6.832) rotate(-110.467)">
            <rect id="Rectangle_481-15" data-name="Rectangle 481" width="0.661" height="1.542" transform="matrix(0.562, -0.827, 0.827, 0.562, 3.751, 3.12)" fill="#fff"/>
            <rect id="Rectangle_482-15" data-name="Rectangle 482" width="0.628" height="4.01" transform="translate(0 0.52) rotate(-55.881)" fill="#fff"/>
          </g>
          <rect id="Rectangle_481-16" data-name="Rectangle 481" width="0.661" height="1.542" transform="translate(21.575 1.599) rotate(-175.552)" fill="#fff"/>
          <rect id="Rectangle_482-16" data-name="Rectangle 482" width="0.628" height="4.01" transform="translate(21.177 6.146) rotate(-175.594)" fill="#fff"/>
          <rect id="Rectangle_481-17" data-name="Rectangle 481" width="0.661" height="1.542" transform="translate(18.414 1.534) rotate(173.912)" fill="#fff"/>
          <rect id="Rectangle_482-17" data-name="Rectangle 482" width="0.628" height="4.01" transform="matrix(-0.994, 0.107, -0.107, -0.994, 18.853, 6.077)" fill="#fff"/>
          <rect id="Rectangle_481-18" data-name="Rectangle 481" width="0.661" height="1.542" transform="matrix(-0.964, 0.265, -0.265, -0.964, 15.288, 1.997)" fill="#fff"/>
          <rect id="Rectangle_482-18" data-name="Rectangle 482" width="0.628" height="4.01" transform="translate(16.455 6.409) rotate(164.575)" fill="#fff"/>
          <rect id="Rectangle_481-19" data-name="Rectangle 481" width="0.661" height="1.542" transform="matrix(-0.901, 0.434, -0.434, -0.901, 12.281, 3.006)" fill="#fff"/>
          <rect id="Rectangle_482-19" data-name="Rectangle 482" width="0.628" height="4.01" transform="translate(14.223 7.136) rotate(154.207)" fill="#fff"/>
          <rect id="Rectangle_481-20" data-name="Rectangle 481" width="0.661" height="1.542" transform="matrix(-0.808, 0.59, -0.59, -0.808, 9.535, 4.532)" fill="#fff"/>
          <rect id="Rectangle_482-20" data-name="Rectangle 482" width="0.628" height="4.01" transform="translate(12.189 8.245) rotate(143.831)" fill="#fff"/>
          <rect id="Rectangle_481-21" data-name="Rectangle 481" width="0.661" height="1.542" transform="translate(7.045 6.551) rotate(133.528)" fill="#fff"/>
          <rect id="Rectangle_482-21" data-name="Rectangle 482" width="0.628" height="4.01" transform="matrix(-0.688, 0.726, -0.726, -0.688, 10.323, 9.726)" fill="#fff"/>
          <rect id="Rectangle_481-22" data-name="Rectangle 481" width="0.661" height="1.542" transform="translate(4.94 8.951) rotate(123.863)" fill="#fff"/>
          <rect id="Rectangle_482-22" data-name="Rectangle 482" width="0.628" height="4.01" transform="matrix(-0.557, 0.831, -0.831, -0.557, 8.705, 11.532)" fill="#fff"/>
          <rect id="Rectangle_481-23" data-name="Rectangle 481" width="0.661" height="1.542" transform="translate(3.343 11.621) rotate(114.689)" fill="#fff"/>
          <rect id="Rectangle_482-23" data-name="Rectangle 482" width="0.628" height="4.01" transform="matrix(-0.417, 0.909, -0.909, -0.417, 7.485, 13.537)" fill="#fff"/>
          <rect id="Rectangle_481-24" data-name="Rectangle 481" width="0.661" height="1.542" transform="translate(2.218 14.556) rotate(105.131)" fill="#fff"/>
          <rect id="Rectangle_482-24" data-name="Rectangle 482" width="0.628" height="4.01" transform="matrix(-0.26, 0.966, -0.966, -0.26, 6.612, 15.791)" fill="#fff"/>
          <rect id="Rectangle_481-25" data-name="Rectangle 481" width="0.661" height="1.542" transform="translate(1.604 17.602) rotate(95.341)" fill="#fff"/>
          <rect id="Rectangle_482-25" data-name="Rectangle 482" width="0.628" height="4.01" transform="translate(6.143 18.072) rotate(95.298)" fill="#fff"/>
          <rect id="Rectangle_481-26" data-name="Rectangle 481" width="0.661" height="1.542" transform="translate(1.538 20.769) rotate(85.51)" fill="#fff"/>
          <rect id="Rectangle_482-26" data-name="Rectangle 482" width="0.628" height="4.01" transform="matrix(0.079, 0.997, -0.997, 0.079, 6.091, 20.457)" fill="#fff"/>
        </g>
      </g>
    </g>
  </g>
</svg>
