<svg xmlns:dc="http://purl.org/dc/elements/1.1/" xmlns:cc="http://creativecommons.org/ns#" xmlns:rdf="http://www.w3.org/1999/02/22-rdf-syntax-ns#" xmlns:svg="http://www.w3.org/2000/svg" xmlns="http://www.w3.org/2000/svg" xmlns:sodipodi="http://sodipodi.sourceforge.net/DTD/sodipodi-0.dtd" xmlns:inkscape="http://www.inkscape.org/namespaces/inkscape" id="Layer_1" data-name="Layer 1" viewBox="0 0 125 24.999999" version="1.1" width="125" height="25">
  <defs id="defs4">
    <style id="style2">.cls-1{fill:#1e89eb;}.cls-2{fill:#1d1d1b;}</style>
  </defs>
  <title id="title6">w= vids - logo 2019</title>
  <polygon class="cls-1" points="142.14,37.06 126.25,117.91 106.91,37.06 70.05,37.06 50.91,118.31 34.82,37.06 0,37.06 30.95,150.69 69.24,150.69 87.77,76.98 105.69,150.69 144.18,150.69 174.92,37.06 " id="polygon8" style="fill:#ffffff;fill-opacity:1" transform="matrix(0.16343789,0,0,0.16343789,0.21548479,0.22938841)"/>
  <rect class="cls-1" x="31.168983" y="6.4531045" width="16.485981" height="5.0257154" id="rect10" style="fill:#ffffff;stroke-width:0.16343789;fill-opacity:1"/>
  <rect class="cls-1" x="31.168983" y="14.940433" width="16.485981" height="5.0257154" id="rect12" style="fill:#ffffff;stroke-width:0.16343789;fill-opacity:1"/>
  <polygon class="cls-2" points="458.74,37.06 421.68,37.06 397.04,118.11 372.4,37.06 335.13,37.06 375.45,150.69 418.42,150.69 " id="polygon14" style="fill:#1d1d1b" transform="matrix(0.16343789,0,0,0.16343789,0.21548479,0.22938841)"/>
  <rect class="cls-2" x="77.586983" y="6.2863979" width="5.6909075" height="18.571447" id="rect16" style="fill:#1d1d1b;stroke-width:0.16343789"/>
  <path class="cls-2" d="M 100.18718,8.8491033 C 99.056186,7.150983 96.918415,6.0199928 94.466851,6.0199928 c -4.559915,0 -8.186604,3.6610093 -8.186604,9.5186232 0,5.857613 3.628318,9.585632 8.186604,9.585632 2.729411,0 4.6923,-1.232322 5.720329,-2.928808 v 2.662404 h 5.6909 V 0.22938841 h -5.6909 z M 96.127382,20.163908 c -2.124695,0 -4.059804,-1.663798 -4.059804,-4.625292 0,-2.961494 1.9302,-4.559917 4.059804,-4.559917 2.163911,0 4.059798,1.634379 4.059798,4.592604 0,2.958225 -1.897516,4.594239 -4.061438,4.594239 z" id="path18" inkscape:connector-curvature="0" style="fill:#1d1d1b;stroke-width:0.16343789"/>
  <path class="cls-2" d="m 114.93092,11.678213 c 0,-0.898908 0.7322,-1.431716 2.06421,-1.431716 1.59679,0 2.56271,0.831899 2.72941,2.096908 h 5.2578 c -0.36609,-3.6610086 -3.0285,-6.3234122 -7.82213,-6.3234122 -4.85901,0 -7.5541,2.5953942 -7.5541,5.7579182 0,6.82353 10.11843,4.659614 10.11843,7.655429 0,0.831899 -0.76488,1.497091 -2.22929,1.497091 -1.5641,0 -2.72941,-0.864586 -2.86179,-2.163917 h -5.62554 c 0.26641,3.595633 3.59564,6.357734 8.55434,6.357734 4.65962,0 7.51815,-2.430322 7.51815,-5.65822 -0.0981,-6.923228 -10.14949,-4.827954 -10.14949,-7.787815 z" id="path20" inkscape:connector-curvature="0" style="fill:#1d1d1b;stroke-width:0.16343789"/>
</svg>